<svg width="200" height="150" viewBox="0 0 200 150" fill="none" xmlns="http://www.w3.org/2000/svg">
<g clip-path="url(#clip0_3_151)">
<path d="M78.8206 19.0563C78.8206 27.9219 71.2486 35.1094 61.9074 35.1094C52.5695 35.1094 44.9975 27.9219 44.9975 19.0563C44.9975 10.1875 52.5695 3 61.9074 3C71.2486 3 78.8206 10.1875 78.8206 19.0563Z" fill="#FF6584"/>
<path d="M111.135 39.0687L111.842 36.1531C111.719 35.85 111.848 35.5 112.158 35.3437C112.703 34.4875 113.509 34.0844 114.565 34.1187C114.845 33.975 115.185 34.0375 115.393 34.25C115.895 33.6219 116.601 33.2875 117.476 33.1875C117.407 32.9062 117.539 32.6031 117.819 32.4594C118.374 31.6562 119.225 31.3156 120.226 31.2312C120.562 31.0594 120.981 31.1812 121.163 31.5L121.298 31.7375L123.734 32.7219L123.523 33.0687L121.5 32.1062C121.949 33.0375 121.566 34.15 120.605 34.6406C119.602 35.15 118.357 34.7937 117.819 33.8437L117.575 33.4125L115.538 34.4531L115.779 34.8812C116.317 35.8344 115.941 37.0156 114.941 37.525C113.941 38.0375 112.693 37.6812 112.155 36.7281L112.05 36.5406L111.719 39.0812L111.135 39.0687Z" fill="#3F3D56"/>
<path d="M102.17 142.806C101.642 142.838 101.348 142.213 101.748 141.847L101.787 141.697C101.784 141.684 101.778 141.672 101.774 141.659C101.236 140.444 99.4142 140.453 98.8828 141.669C98.4107 142.75 97.81 143.831 97.6615 144.975C97.5955 145.481 97.6252 145.994 97.7407 146.488C96.6349 144.191 96.0507 141.684 96.0507 139.163C96.0507 138.528 96.087 137.894 96.1629 137.263C96.2256 136.744 96.3081 136.231 96.4171 135.722C97.0112 132.969 98.2952 130.347 100.147 128.159C101.035 127.697 101.778 126.975 102.226 126.109C102.388 125.797 102.514 125.462 102.573 125.119C102.474 125.131 102.193 123.669 102.269 123.578C102.127 123.375 101.873 123.272 101.721 123.075C100.952 122.087 99.8961 122.259 99.3449 123.6C98.1665 124.166 98.1566 125.103 98.8795 126.003C99.3383 126.575 99.401 127.35 99.807 127.962C99.7641 128.012 99.7212 128.062 99.6782 128.112C98.9191 129.041 98.2589 130.037 97.7044 131.081C97.8628 129.919 97.6285 128.519 97.2357 127.616C96.7868 126.584 95.9451 125.719 95.2024 124.828C94.3112 123.759 92.4825 124.225 92.3274 125.581C92.3241 125.594 92.3241 125.606 92.3208 125.622C92.433 125.678 92.5387 125.741 92.6443 125.809C93.2483 126.187 93.0404 127.072 92.3274 127.175L92.3109 127.178C92.3505 127.553 92.4198 127.928 92.5189 128.297C91.5649 131.791 93.6213 133.062 96.5557 133.119C96.6184 133.15 96.6811 133.181 96.7472 133.212C96.4501 134.006 96.2124 134.822 96.0375 135.647C95.879 136.378 95.7701 137.116 95.7074 137.856C95.6315 138.791 95.6381 139.731 95.7206 140.663L95.7173 140.631C95.5061 139.603 94.9185 138.644 94.0636 137.978C92.7928 136.988 90.9972 136.622 89.6241 135.825C88.9639 135.441 88.1189 135.938 88.2344 136.663L88.2377 136.697C88.4424 136.778 88.6437 136.869 88.8352 136.972C88.9441 137.028 89.053 137.094 89.1587 137.159C89.7594 137.538 89.5514 138.422 88.8385 138.525L88.822 138.528C88.8121 138.528 88.8022 138.531 88.789 138.531C89.1388 139.322 89.6274 140.056 90.238 140.688C90.8355 143.738 93.3903 144.028 96.1233 143.138H96.1266C96.4237 144.375 96.8627 145.581 97.4238 146.734H102.055C102.071 146.684 102.088 146.634 102.101 146.584C101.675 146.609 101.243 146.588 100.82 146.513C101.164 146.113 101.507 145.709 101.85 145.309C101.86 145.3 101.867 145.294 101.873 145.284C102.048 145.078 102.223 144.875 102.398 144.672C102.408 144.041 102.329 143.416 102.17 142.806Z" fill="#F2F2F2"/>
<path d="M120.43 42.6687L123.233 45.8625L121.737 35.5719L121.183 35.8344C120.605 36.1094 120.236 36.6656 120.226 37.2781L120.43 42.6687Z" fill="#2F2E41"/>
<path d="M114.789 129.319L116.588 132.578L116.591 132.587L117.192 133.672L118.156 135.412L118.559 136.147L119.163 137.237L120.688 136.687L121.14 136.522L121.381 136.437L120.975 135.431L119.909 132.762L118.06 128.137L118.037 128.144L117.582 128.309L115.766 128.966L115.311 129.128L114.789 129.319Z" fill="#FFB6B6"/>
<path d="M115.667 142.391C115.878 142.912 116.489 143.172 117.037 142.975L117.763 142.712L118.219 142.55L120.037 141.894L120.493 141.731L121.444 141.387L121.605 139.622L121.995 140.222V140.225L122.5 141.006L122.767 140.909L124.163 140.406L121.569 135.256L120.975 135.431L120.76 135.494L120.295 135.631L118.562 136.147H118.559L118.44 136.184L117.974 136.322L117.78 136.378L118.387 137.884L117.133 139.612L116.789 140.084L115.786 141.462C115.591 141.737 115.545 142.084 115.667 142.391Z" fill="#2F2E41"/>
<path d="M133.353 133.05L133.897 136.697V136.706L134.076 137.919L134.369 139.866L134.492 140.687L134.673 141.906L136.304 141.875L136.789 141.862L137.046 141.856L137.02 140.781L136.961 137.928L136.852 132.981H136.829L136.343 132.991L134.399 133.031L133.911 133.041L133.353 133.05Z" fill="#FFB6B6"/>
<path d="M129.56 145.647C129.573 146.203 130.059 146.647 130.643 146.634L131.422 146.619L131.907 146.609L133.851 146.572L134.34 146.562L135.356 146.541L136.132 144.928L136.287 145.619V145.622L136.485 146.519L136.769 146.512L138.264 146.484L137.641 140.803L137.02 140.781L136.796 140.772L136.307 140.753L134.492 140.687L134.363 140.681L133.878 140.662L133.676 140.656L133.713 142.269L131.92 143.494L131.432 143.831L129.999 144.812C129.719 145.006 129.554 145.319 129.56 145.647Z" fill="#2F2E41"/>
<path d="M139.02 85.1313L137.284 75.3781L141.011 73.9563L141.79 84.7406C142.136 84.9438 142.43 85.2375 142.618 85.6156C143.136 86.6469 142.674 87.8813 141.585 88.3719C140.499 88.8625 139.198 88.4219 138.684 87.3906C138.297 86.6188 138.459 85.7344 139.02 85.1313Z" fill="#FFB6B6"/>
<path d="M110.277 41.8125L103.514 49.3344L99.972 47.5375L108.184 40.0469C108.122 39.6625 108.174 39.2594 108.356 38.8812C108.858 37.8437 110.152 37.3875 111.247 37.8625C112.34 38.3406 112.819 39.5687 112.317 40.6062C111.944 41.3844 111.122 41.8344 110.277 41.8125Z" fill="#FFB6B6"/>
<path d="M130.811 40.3188C130.811 43.2563 128.303 45.6375 125.21 45.6375C122.117 45.6375 119.612 43.2563 119.612 40.3188C119.612 37.3844 122.117 35.0031 125.21 35.0031C128.303 35.0031 130.811 37.3844 130.811 40.3188Z" fill="#FFB6B6"/>
<path d="M117.489 74.0406L132.58 72.4781L133.138 74.9625V75.5563L133.462 75.9125L133.581 76.3563L133.888 76.3813C133.888 76.3813 133.709 76.6813 133.838 76.8438C133.937 76.9719 134.32 76.9281 134.475 77.1438C136.059 79.3375 140.166 86.025 138.185 94.125L138.466 107.522L138.208 108.575L138.505 109.259L138.72 110.281L139.027 131.475L139.776 133.959L138.654 137.153L131.924 137.506L130.805 133.425L131.366 128.281L129.682 113.197L129.21 112.478L129.481 111.747L129.722 110.772L129.204 109.762L127.368 96.525C126.89 95.4625 126.692 94.3031 126.791 93.1531L126.83 92.6688L126.504 90.3094L117.44 104.325L114.413 109.3L114.73 111.425L116.727 123.456L119.556 126.387L120.07 130.291L115.958 132.731L111.33 131.269V128.337L104.273 110.037L112.3 87.4719L113.608 86.4063L113.423 84.9875L114.657 83.8156L117.126 78.5531L118.262 76.2375L117.489 74.0406Z" fill="#2F2E41"/>
<path d="M122.579 45.95H128.527L129.87 49.8531L138.281 53.5813L136.409 61.9188L134.168 69.1938L133.508 69.8219L133.795 70.9688H132.343L132.58 72.4781L134.168 74.6938L117.073 74.3469V70.7281L118.41 65.6188C116.723 62.0906 117.664 59.9688 117.899 56.1L116.413 50.7406L121.084 50.3063L122.579 45.95Z" fill="#CED669"/>
<path d="M118.707 56.1625L120.014 53.1469C120.014 53.1469 119.826 51.0187 115.902 50.4844C111.977 49.9531 104.527 49.4219 104.527 49.4219L106.329 47.5562L107.098 45.6031L103.501 43.8969L101.438 44.8594L100.672 46.0937L100.929 46.5812L99.8136 47.225C98.4239 49.3219 99.0181 52.0875 101.164 53.5L101.995 54.2937L103.217 54.9219L104.712 54.7437L118.707 56.1625Z" fill="#CED669"/>
<path d="M133.888 54.2906L137.063 53.0469C137.063 53.0469 139.307 53.225 139.869 56.9531C140.43 60.6781 140.991 70.4375 140.991 70.4375L141.925 72.3875V72.9344L142.75 74.6063L142.255 75.0781L143.605 76.1156L137.439 78.2438L136.112 75.025L136.69 73.6313L135.858 72.8375L135.195 71.6781L135.383 70.2594L133.888 54.2906Z" fill="#CED669"/>
<path d="M135.852 51.2156H134.317C133.805 50.5594 133.716 50.125 133.759 49.3188C133.689 49.8625 132.468 48.1969 132.538 48.8281C132.554 48.9656 133.297 51.3281 133.323 51.4625C132.61 52.0781 131.785 52.4031 130.881 52.5156C131.168 51.6875 130.877 51.2406 129.989 51.3156C130.036 51.7344 129.976 52.1625 129.831 52.5625C127.151 52.475 123.916 50.9938 120.721 49.8344C120.605 49.0688 120.747 48.2688 121.14 47.5938C120.81 48.1156 120.49 48.6406 120.259 49.2063C120.206 49.3344 120.16 49.4625 120.12 49.5906C120.09 49.6844 120.064 49.7781 120.041 49.8688L118.562 49.9438C119.82 48.2188 119.589 45.8 121.12 44.4969C123.553 42.4312 121.5 39.4219 120.483 36.6156C120.45 35.8906 120.922 35.225 121.645 34.9781L123.622 34.3063C126.134 33.45 126.009 32.9594 128.438 34.375C130.867 33.6688 135.122 37.4344 135.122 40.2344C135.122 40.4781 135.155 40.7156 135.201 40.9406C134.917 40.975 134.64 41.0625 134.393 41.2063C134.729 41.3875 135.059 41.5812 135.376 41.7938C135.62 43.2344 135.604 44.7031 135.251 46.1281C134.855 47.7312 135.574 50.4531 135.852 51.2156Z" fill="#2F2E41"/>
<path d="M153.989 146.747C153.989 146.906 153.851 147.038 153.682 147.038H88.5645C88.3962 147.038 88.2575 146.906 88.2575 146.747C88.2575 146.584 88.3962 146.456 88.5645 146.456H153.682C153.851 146.456 153.989 146.584 153.989 146.747Z" fill="#CCCCCC"/>
</g>
<defs>
<clipPath id="clip0_3_151">
<rect width="169" height="144" fill="white" transform="translate(15 3)"/>
</clipPath>
</defs>
</svg>
