<svg width="200" height="128" viewBox="0 0 200 128" fill="none" xmlns="http://www.w3.org/2000/svg">
<g clip-path="url(#clip0_2_12)">
<path d="M-0.149689 122.01H200V127.786H-0.149689V122.01Z" fill="#65617D"/>
<path d="M137.128 47.2319C137.13 47.3849 137.14 47.5377 137.159 47.6894C137.14 47.5377 137.13 47.3849 137.128 47.2319Z" fill="#35F5BC" fill-opacity="0.0980392"/>
<path d="M138.926 50.3505C138.667 50.2082 138.427 50.0301 138.213 49.8211C138.427 50.0301 138.667 50.2082 138.926 50.3505Z" fill="#35F5BC" fill-opacity="0.0980392"/>
<path d="M55.6287 6.0637C55.6287 4.96913 56.4709 4.08181 57.5097 4.08181H69.8307C70.8696 4.08181 71.7117 4.96913 71.7117 6.0637V9.83768C71.7117 10.9322 70.8696 11.8196 69.8307 11.8196H57.5097C56.4709 11.8196 55.6287 10.9322 55.6287 9.83768V6.0637Z" fill="#35F5BC" fill-opacity="0.0980392"/>
<path d="M71.7117 6.0637C71.7117 4.96913 72.5538 4.08181 73.5927 4.08181H85.9137C86.9525 4.08181 87.7947 4.96913 87.7947 6.0637V9.83768C87.7947 10.9322 86.9525 11.8196 85.9137 11.8196H73.5927C72.5538 11.8196 71.7117 10.9322 71.7117 9.83768V6.0637Z" fill="#35F5BC" fill-opacity="0.0980392"/>
<path d="M87.7947 6.0637C87.7947 4.96913 88.6368 4.08181 89.6756 4.08181H101.997C103.036 4.08181 103.878 4.96913 103.878 6.0637V9.83768C103.878 10.9322 103.036 11.8196 101.997 11.8196H89.6756C88.6368 11.8196 87.7947 10.9322 87.7947 9.83768V6.0637Z" fill="#35F5BC" fill-opacity="0.0980392"/>
<path d="M103.876 6.0637C103.876 4.96913 104.718 4.08181 105.757 4.08181H118.078C119.117 4.08181 119.959 4.96913 119.959 6.0637V9.83768C119.959 10.9322 119.117 11.8196 118.078 11.8196H105.757C104.718 11.8196 103.876 10.9322 103.876 9.83768V6.0637Z" fill="#35F5BC" fill-opacity="0.0980392"/>
<path d="M55.6287 13.3739C55.6287 12.2793 56.4709 11.392 57.5097 11.392H69.8307C70.8696 11.392 71.7117 12.2793 71.7117 13.3739V17.1479C71.7117 18.2425 70.8696 19.1298 69.8307 19.1298H57.5097C56.4709 19.1298 55.6287 18.2425 55.6287 17.1479V13.3739Z" fill="#35F5BC" fill-opacity="0.0980392"/>
<path d="M71.7117 13.3739C71.7117 12.2793 72.5538 11.392 73.5927 11.392H85.9137C86.9525 11.392 87.7947 12.2793 87.7947 13.3739V17.1479C87.7947 18.2425 86.9525 19.1298 85.9137 19.1298H73.5927C72.5538 19.1298 71.7117 18.2425 71.7117 17.1479V13.3739Z" fill="#35F5BC" fill-opacity="0.0980392"/>
<path d="M87.7947 13.3739C87.7947 12.2793 88.6368 11.392 89.6756 11.392H101.997C103.036 11.392 103.878 12.2793 103.878 13.3739V17.1479C103.878 18.2425 103.036 19.1298 101.997 19.1298H89.6756C88.6368 19.1298 87.7947 18.2425 87.7947 17.1479V13.3739Z" fill="#35F5BC" fill-opacity="0.0980392"/>
<path d="M103.876 13.3739C103.876 12.2793 104.718 11.392 105.757 11.392H118.078C119.117 11.392 119.959 12.2793 119.959 13.3739V17.1479C119.959 18.2425 119.117 19.1298 118.078 19.1298H105.757C104.718 19.1298 103.876 18.2425 103.876 17.1479V13.3739Z" fill="#35F5BC" fill-opacity="0.0980392"/>
<path d="M39.5458 21.0378C39.5458 19.7357 40.5475 18.6803 41.7832 18.6803H53.3913C54.627 18.6803 55.6287 19.7357 55.6287 21.0378V24.0605C55.6287 25.3625 54.627 26.418 53.3913 26.418H41.7832C40.5475 26.418 39.5458 25.3625 39.5458 24.0605V21.0378Z" fill="#35F5BC" fill-opacity="0.0980392"/>
<path d="M71.7117 21.0378C71.7117 19.7357 72.7134 18.6803 73.9491 18.6803H85.5572C86.7929 18.6803 87.7947 19.7357 87.7947 21.0378V24.0605C87.7947 25.3625 86.7929 26.418 85.5572 26.418H73.9491C72.7134 26.418 71.7117 25.3625 71.7117 24.0605V21.0378Z" fill="#35F5BC" fill-opacity="0.0980392"/>
<path d="M87.7947 21.0378C87.7947 19.7357 88.7964 18.6803 90.0321 18.6803H101.64C102.876 18.6803 103.878 19.7357 103.878 21.0378V24.0605C103.878 25.3625 102.876 26.418 101.64 26.418H90.0321C88.7964 26.418 87.7947 25.3625 87.7947 24.0605V21.0378Z" fill="#35F5BC" fill-opacity="0.0980392"/>
<path d="M103.876 21.0378C103.876 19.7357 104.877 18.6803 106.113 18.6803H117.721C118.957 18.6803 119.959 19.7357 119.959 21.0378V24.0605C119.959 25.3625 118.957 26.418 117.721 26.418H106.113C104.877 26.418 103.876 25.3625 103.876 24.0605V21.0378Z" fill="#35F5BC" fill-opacity="0.0980392"/>
<path d="M55.6287 28.346C55.6287 27.044 56.6305 25.9885 57.8662 25.9885H69.4743C70.71 25.9885 71.7117 27.044 71.7117 28.346V31.3687C71.7117 32.6708 70.71 33.7262 69.4743 33.7262H57.8662C56.6305 33.7262 55.6287 32.6708 55.6287 31.3687V28.346Z" fill="#35F5BC" fill-opacity="0.0980392"/>
<path d="M71.7117 28.346C71.7117 27.044 72.7134 25.9885 73.9491 25.9885H85.5572C86.7929 25.9885 87.7947 27.044 87.7947 28.346V31.3687C87.7947 32.6708 86.7929 33.7262 85.5572 33.7262H73.9491C72.7134 33.7262 71.7117 32.6708 71.7117 31.3687V28.346Z" fill="#35F5BC" fill-opacity="0.0980392"/>
<path d="M87.7947 28.346C87.7947 27.044 88.7964 25.9885 90.0321 25.9885H101.64C102.876 25.9885 103.878 27.044 103.878 28.346V31.3687C103.878 32.6708 102.876 33.7262 101.64 33.7262H90.0321C88.7964 33.7262 87.7947 32.6708 87.7947 31.3687V28.346Z" fill="#35F5BC" fill-opacity="0.0980392"/>
<path d="M39.5458 35.6342C39.5458 34.3322 40.5475 33.2767 41.7832 33.2767H53.3913C54.627 33.2767 55.6287 34.3322 55.6287 35.6342V38.657C55.6287 39.959 54.627 41.0145 53.3913 41.0145H41.7832C40.5475 41.0145 39.5458 39.959 39.5458 38.657V35.6342Z" fill="#35F5BC" fill-opacity="0.0980392"/>
<path d="M39.5458 57.5409C39.5458 56.2389 40.5475 55.1834 41.7832 55.1834H53.3913C54.627 55.1834 55.6287 56.2389 55.6287 57.5409V60.5637C55.6287 61.8657 54.627 62.9212 53.3913 62.9212H41.7832C40.5475 62.9212 39.5458 61.8657 39.5458 60.5637V57.5409Z" fill="#35F5BC" fill-opacity="0.0980392"/>
<path d="M71.7117 35.6342C71.7117 34.3322 72.7134 33.2767 73.9491 33.2767H85.5572C86.7929 33.2767 87.7947 34.3322 87.7947 35.6342V38.657C87.7947 39.959 86.7929 41.0145 85.5572 41.0145H73.9491C72.7134 41.0145 71.7117 39.959 71.7117 38.657V35.6342Z" fill="#35F5BC" fill-opacity="0.0980392"/>
<path d="M87.7947 35.6342C87.7947 34.3322 88.7964 33.2767 90.0321 33.2767H101.64C102.876 33.2767 103.878 34.3322 103.878 35.6342V38.657C103.878 39.959 102.876 41.0145 101.64 41.0145H90.0321C88.7964 41.0145 87.7947 39.959 87.7947 38.657V35.6342Z" fill="#35F5BC" fill-opacity="0.0980392"/>
<path d="M103.876 35.6342C103.876 34.3322 104.877 33.2767 106.113 33.2767H117.721C118.957 33.2767 119.959 34.3322 119.959 35.6342V38.657C119.959 39.959 118.957 41.0145 117.721 41.0145H106.113C104.877 41.0145 103.876 39.959 103.876 38.657V35.6342Z" fill="#35F5BC" fill-opacity="0.0980392"/>
<path d="M119.959 13.7495C119.959 12.4475 120.96 11.392 122.196 11.392H133.804C135.04 11.392 136.042 12.4475 136.042 13.7495V16.7723C136.042 18.0743 135.04 19.1298 133.804 19.1298H122.196C120.96 19.1298 119.959 18.0743 119.959 16.7723V13.7495Z" fill="#35F5BC" fill-opacity="0.0980392"/>
<path d="M119.959 27.339C119.959 26.5931 120.533 25.9885 121.24 25.9885H134.76C135.468 25.9885 136.042 26.5931 136.042 27.339V32.3757C136.042 33.1216 135.468 33.7262 134.76 33.7262H121.24C120.533 33.7262 119.959 33.1216 119.959 32.3757V27.339Z" fill="#35F5BC" fill-opacity="0.0980392"/>
<path d="M119.959 34.6273C119.959 33.8814 120.533 33.2767 121.24 33.2767H134.76C135.468 33.2767 136.042 33.8814 136.042 34.6273V39.6639C136.042 40.4098 135.468 41.0145 134.76 41.0145H121.24C120.533 41.0145 119.959 40.4098 119.959 39.6639V34.6273Z" fill="#35F5BC" fill-opacity="0.0980392"/>
<path d="M55.6287 42.8965C55.6287 41.621 56.6101 40.5869 57.8206 40.5869H69.5198C70.7303 40.5869 71.7117 41.621 71.7117 42.8965V46.0152C71.7117 47.2907 70.7303 48.3247 69.5198 48.3247H57.8206C56.6101 48.3247 55.6287 47.2907 55.6287 46.0152V42.8965Z" fill="#35F5BC" fill-opacity="0.0980392"/>
<path d="M71.7117 42.8965C71.7117 41.621 72.6931 40.5869 73.9036 40.5869H85.6027C86.8133 40.5869 87.7947 41.621 87.7947 42.8965V46.0152C87.7947 47.2907 86.8133 48.3247 85.6027 48.3247H73.9036C72.6931 48.3247 71.7117 47.2907 71.7117 46.0152V42.8965Z" fill="#35F5BC" fill-opacity="0.0980392"/>
<path d="M87.7947 42.8965C87.7947 41.621 88.776 40.5869 89.9866 40.5869H101.686C102.896 40.5869 103.878 41.621 103.878 42.8965V46.0152C103.878 47.2907 102.896 48.3247 101.686 48.3247H89.9866C88.776 48.3247 87.7947 47.2907 87.7947 46.0152V42.8965Z" fill="#35F5BC" fill-opacity="0.0980392"/>
<path d="M103.876 42.8965C103.876 41.621 104.857 40.5869 106.068 40.5869H117.767C118.977 40.5869 119.959 41.621 119.959 42.8965V46.0152C119.959 47.2907 118.977 48.3247 117.767 48.3247H106.068C104.857 48.3247 103.876 47.2907 103.876 46.0152V42.8965Z" fill="#35F5BC" fill-opacity="0.0980392"/>
<path d="M39.5458 50.1827C39.5458 48.9072 40.5271 47.8732 41.7377 47.8732H53.4368C54.6474 47.8732 55.6287 48.9072 55.6287 50.1827V53.3014C55.6287 54.5769 54.6474 55.6109 53.4368 55.6109H41.7377C40.5271 55.6109 39.5458 54.5769 39.5458 53.3014V50.1827Z" fill="#35F5BC" fill-opacity="0.0980392"/>
<path d="M23.4628 50.1827C23.4628 48.9072 24.4442 47.8732 25.6547 47.8732H37.3538C38.5644 47.8732 39.5458 48.9072 39.5458 50.1827V53.3014C39.5458 54.5769 38.5644 55.6109 37.3538 55.6109H25.6547C24.4442 55.6109 23.4628 54.5769 23.4628 53.3014V50.1827Z" fill="#35F5BC" fill-opacity="0.0980392"/>
<path d="M19.4601 2.52347C19.4601 1.24794 20.4414 0.213926 21.652 0.213926H33.3511C34.5617 0.213926 35.543 1.24794 35.543 2.52347V5.64215C35.543 6.91767 34.5617 7.95169 33.3511 7.95169H21.652C20.4414 7.95169 19.4601 6.91767 19.4601 5.64215V2.52347Z" fill="#35F5BC" fill-opacity="0.0980392"/>
<path d="M9.60019 10.2612C9.60019 8.9857 10.5815 7.95169 11.7921 7.95169H23.4912C24.7018 7.95169 25.6832 8.9857 25.6832 10.2612V13.3799C25.6832 14.6554 24.7018 15.6894 23.4912 15.6894H11.7921C10.5815 15.6894 9.60019 14.6554 9.60019 13.3799V10.2612Z" fill="#35F5BC" fill-opacity="0.0980392"/>
<path d="M-5 38.5831C-5 37.3075 -4.01864 36.2735 -2.80807 36.2735H8.89104C10.1016 36.2735 11.083 37.3075 11.083 38.5831V41.7017C11.083 42.9773 10.1016 44.0113 8.89104 44.0113H-2.80807C-4.01864 44.0113 -5 42.9773 -5 41.7017V38.5831Z" fill="#35F5BC" fill-opacity="0.0980392"/>
<path d="M3.04147 46.3128C3.04147 45.0373 4.02283 44.0033 5.2334 44.0033H16.9325C18.1431 44.0033 19.1244 45.0373 19.1244 46.3128V49.4315C19.1244 50.707 18.1431 51.7411 16.9325 51.7411H5.2334C4.02283 51.7411 3.04147 50.707 3.04147 49.4315V46.3128Z" fill="#35F5BC" fill-opacity="0.0980392"/>
<path d="M55.6287 50.1827C55.6287 48.9072 56.6101 47.8732 57.8206 47.8732H69.5198C70.7303 47.8732 71.7117 48.9072 71.7117 50.1827V53.3014C71.7117 54.5769 70.7303 55.6109 69.5198 55.6109H57.8206C56.6101 55.6109 55.6287 54.5769 55.6287 53.3014V50.1827Z" fill="#35F5BC" fill-opacity="0.0980392"/>
<path d="M71.7117 50.1827C71.7117 48.9072 72.6931 47.8732 73.9036 47.8732H85.6027C86.8133 47.8732 87.7947 48.9072 87.7947 50.1827V53.3014C87.7947 54.5769 86.8133 55.6109 85.6027 55.6109H73.9036C72.6931 55.6109 71.7117 54.5769 71.7117 53.3014V50.1827Z" fill="#35F5BC" fill-opacity="0.0980392"/>
<path d="M87.7947 50.1827C87.7947 48.9072 88.776 47.8732 89.9866 47.8732H101.686C102.896 47.8732 103.878 48.9072 103.878 50.1827V53.3014C103.878 54.5769 102.896 55.6109 101.686 55.6109H89.9866C88.776 55.6109 87.7947 54.5769 87.7947 53.3014V50.1827Z" fill="#35F5BC" fill-opacity="0.0980392"/>
<path d="M103.876 50.1827C103.876 48.9072 104.857 47.8732 106.068 47.8732H117.767C118.977 47.8732 119.959 48.9072 119.959 50.1827V53.3014C119.959 54.5769 118.977 55.6109 117.767 55.6109H106.068C104.857 55.6109 103.876 54.5769 103.876 53.3014V50.1827Z" fill="#35F5BC" fill-opacity="0.0980392"/>
<path d="M71.7117 57.421C71.7117 56.1852 72.6625 55.1834 73.8354 55.1834H85.671C86.8439 55.1834 87.7947 56.1852 87.7947 57.421V60.6835C87.7947 61.9193 86.8439 62.9212 85.671 62.9212H73.8354C72.6625 62.9212 71.7117 61.9193 71.7117 60.6835V57.421Z" fill="#35F5BC" fill-opacity="0.0980392"/>
<path d="M87.7947 57.421C87.7947 56.1852 88.7455 55.1834 89.9183 55.1834H101.754C102.927 55.1834 103.878 56.1852 103.878 57.421V60.6835C103.878 61.9193 102.927 62.9212 101.754 62.9212H89.9183C88.7455 62.9212 87.7947 61.9193 87.7947 60.6835V57.421Z" fill="#35F5BC" fill-opacity="0.0980392"/>
<path d="M39.5458 64.7073C39.5458 63.4715 40.4966 62.4696 41.6694 62.4696H53.5051C54.6779 62.4696 55.6287 63.4715 55.6287 64.7073V67.9698C55.6287 69.2056 54.6779 70.2074 53.5051 70.2074H41.6694C40.4966 70.2074 39.5458 69.2056 39.5458 67.9698V64.7073Z" fill="#35F5BC" fill-opacity="0.0980392"/>
<path d="M55.6287 64.7073C55.6287 63.4715 56.5795 62.4696 57.7524 62.4696H69.588C70.7609 62.4696 71.7117 63.4715 71.7117 64.7073V67.9698C71.7117 69.2056 70.7609 70.2074 69.588 70.2074H57.7524C56.5795 70.2074 55.6287 69.2056 55.6287 67.9698V64.7073Z" fill="#35F5BC" fill-opacity="0.0980392"/>
<path d="M55.6287 72.0055C55.6287 70.7697 56.5795 69.7679 57.7524 69.7679H69.588C70.7609 69.7679 71.7117 70.7697 71.7117 72.0055V75.268C71.7117 76.5038 70.7609 77.5056 69.588 77.5056H57.7524C56.5795 77.5056 55.6287 76.5038 55.6287 75.268V72.0055Z" fill="#35F5BC" fill-opacity="0.0980392"/>
<path d="M71.7117 64.7073C71.7117 63.4715 72.6625 62.4696 73.8354 62.4696H85.671C86.8439 62.4696 87.7947 63.4715 87.7947 64.7073V67.9698C87.7947 69.2056 86.8439 70.2074 85.671 70.2074H73.8354C72.6625 70.2074 71.7117 69.2056 71.7117 67.9698V64.7073Z" fill="#35F5BC" fill-opacity="0.0980392"/>
<path d="M87.7947 64.7073C87.7947 63.4715 88.7455 62.4696 89.9183 62.4696H101.754C102.927 62.4696 103.878 63.4715 103.878 64.7073V67.9698C103.878 69.2056 102.927 70.2074 101.754 70.2074H89.9183C88.7455 70.2074 87.7947 69.2056 87.7947 67.9698V64.7073Z" fill="#35F5BC" fill-opacity="0.0980392"/>
<path d="M103.876 64.7073C103.876 63.4715 104.827 62.4696 105.999 62.4696H117.835C119.008 62.4696 119.959 63.4715 119.959 64.7073V67.9698C119.959 69.2056 119.008 70.2074 117.835 70.2074H105.999C104.827 70.2074 103.876 69.2056 103.876 67.9698V64.7073Z" fill="#35F5BC" fill-opacity="0.0980392"/>
<path d="M71.7117 72.0175C71.7117 70.7817 72.6625 69.7799 73.8354 69.7799H85.671C86.8439 69.7799 87.7947 70.7817 87.7947 72.0175V75.28C87.7947 76.5158 86.8439 77.5176 85.671 77.5176H73.8354C72.6625 77.5176 71.7117 76.5158 71.7117 75.28V72.0175Z" fill="#35F5BC" fill-opacity="0.0980392"/>
<path d="M87.7947 72.0175C87.7947 70.7817 88.7455 69.7799 89.9183 69.7799H101.754C102.927 69.7799 103.878 70.7817 103.878 72.0175V75.28C103.878 76.5158 102.927 77.5176 101.754 77.5176H89.9183C88.7455 77.5176 87.7947 76.5158 87.7947 75.28V72.0175Z" fill="#35F5BC" fill-opacity="0.0980392"/>
<path d="M39.5458 79.3037C39.5458 78.0679 40.4966 77.0661 41.6694 77.0661H53.5051C54.6779 77.0661 55.6287 78.0679 55.6287 79.3037V82.5662C55.6287 83.802 54.6779 84.8039 53.5051 84.8039H41.6694C40.4966 84.8039 39.5458 83.802 39.5458 82.5662V79.3037Z" fill="#35F5BC" fill-opacity="0.0980392"/>
<path d="M55.6287 79.3037C55.6287 78.0679 56.5795 77.0661 57.7524 77.0661H69.588C70.7609 77.0661 71.7117 78.0679 71.7117 79.3037V82.5662C71.7117 83.802 70.7609 84.8039 69.588 84.8039H57.7524C56.5795 84.8039 55.6287 83.802 55.6287 82.5662V79.3037Z" fill="#35F5BC" fill-opacity="0.0980392"/>
<path d="M71.7117 79.3037C71.7117 78.0679 72.6625 77.0661 73.8354 77.0661H85.671C86.8439 77.0661 87.7947 78.0679 87.7947 79.3037V82.5662C87.7947 83.802 86.8439 84.8039 85.671 84.8039H73.8354C72.6625 84.8039 71.7117 83.802 71.7117 82.5662V79.3037Z" fill="#35F5BC" fill-opacity="0.0980392"/>
<path d="M87.7947 79.3037C87.7947 78.0679 88.7455 77.0661 89.9183 77.0661H101.754C102.927 77.0661 103.878 78.0679 103.878 79.3037V82.5662C103.878 83.802 102.927 84.8039 101.754 84.8039H89.9183C88.7455 84.8039 87.7947 83.802 87.7947 82.5662V79.3037Z" fill="#35F5BC" fill-opacity="0.0980392"/>
<path d="M103.876 79.3037C103.876 78.0679 104.827 77.0661 105.999 77.0661H117.835C119.008 77.0661 119.959 78.0679 119.959 79.3037V82.5662C119.959 83.802 119.008 84.8039 117.835 84.8039H105.999C104.827 84.8039 103.876 83.802 103.876 82.5662V79.3037Z" fill="#35F5BC" fill-opacity="0.0980392"/>
<path d="M119.959 78.4167C119.959 77.6708 120.533 77.0661 121.24 77.0661H134.76C135.468 77.0661 136.042 77.6708 136.042 78.4167V83.4533C136.042 84.1992 135.468 84.8039 134.76 84.8039H121.24C120.533 84.8039 119.959 84.1992 119.959 83.4533V78.4167Z" fill="#35F5BC" fill-opacity="0.0980392"/>
<path d="M55.6287 86.0046C55.6287 85.1053 56.3206 84.3763 57.1741 84.3763H70.1663C71.0198 84.3763 71.7117 85.1053 71.7117 86.0046V90.4858C71.7117 91.3851 71.0198 92.1141 70.1663 92.1141H57.1741C56.3206 92.1141 55.6287 91.3851 55.6287 90.4858V86.0046Z" fill="#35F5BC" fill-opacity="0.0980392"/>
<path d="M71.7117 86.0046C71.7117 85.1053 72.4036 84.3763 73.257 84.3763H86.2493C87.1028 84.3763 87.7947 85.1053 87.7947 86.0046V90.4858C87.7947 91.3851 87.1028 92.1141 86.2493 92.1141H73.257C72.4036 92.1141 71.7117 91.3851 71.7117 90.4858V86.0046Z" fill="#35F5BC" fill-opacity="0.0980392"/>
<path d="M87.7947 86.0046C87.7947 85.1053 88.4866 84.3763 89.34 84.3763H102.332C103.186 84.3763 103.878 85.1053 103.878 86.0046V90.4858C103.878 91.3851 103.186 92.1141 102.332 92.1141H89.34C88.4866 92.1141 87.7947 91.3851 87.7947 90.4858V86.0046Z" fill="#35F5BC" fill-opacity="0.0980392"/>
<path d="M103.876 86.0046C103.876 85.1053 104.568 84.3763 105.421 84.3763H118.413C119.267 84.3763 119.959 85.1053 119.959 86.0046V90.4858C119.959 91.3851 119.267 92.1141 118.413 92.1141H105.421C104.568 92.1141 103.876 91.3851 103.876 90.4858V86.0046Z" fill="#35F5BC" fill-opacity="0.0980392"/>
<path d="M55.6287 93.2908C55.6287 92.3916 56.3206 91.6626 57.1741 91.6626H70.1663C71.0198 91.6626 71.7117 92.3916 71.7117 93.2908V97.772C71.7117 98.6713 71.0198 99.4003 70.1663 99.4003H57.1741C56.3206 99.4003 55.6287 98.6713 55.6287 97.772V93.2908Z" fill="#35F5BC" fill-opacity="0.0980392"/>
<path d="M71.7117 93.2908C71.7117 92.3916 72.4036 91.6626 73.257 91.6626H86.2493C87.1028 91.6626 87.7947 92.3916 87.7947 93.2908V97.772C87.7947 98.6713 87.1028 99.4003 86.2493 99.4003H73.257C72.4036 99.4003 71.7117 98.6713 71.7117 97.772V93.2908Z" fill="#35F5BC" fill-opacity="0.0980392"/>
<path d="M87.7947 93.2908C87.7947 92.3916 88.4866 91.6626 89.34 91.6626H102.332C103.186 91.6626 103.878 92.3916 103.878 93.2908V97.772C103.878 98.6713 103.186 99.4003 102.332 99.4003H89.34C88.4866 99.4003 87.7947 98.6713 87.7947 97.772V93.2908Z" fill="#35F5BC" fill-opacity="0.0980392"/>
<path d="M103.876 93.2908C103.876 92.3916 104.568 91.6626 105.421 91.6626H118.413C119.267 91.6626 119.959 92.3916 119.959 93.2908V97.772C119.959 98.6713 119.267 99.4003 118.413 99.4003H105.421C104.568 99.4003 103.876 98.6713 103.876 97.772V93.2908Z" fill="#35F5BC" fill-opacity="0.0980392"/>
<path d="M39.5458 100.601C39.5458 99.7018 40.2377 98.9728 41.0911 98.9728H54.0834C54.9369 98.9728 55.6287 99.7018 55.6287 100.601V105.082C55.6287 105.982 54.9369 106.711 54.0834 106.711H41.0911C40.2377 106.711 39.5458 105.982 39.5458 105.082V100.601Z" fill="#35F5BC" fill-opacity="0.0980392"/>
<path d="M55.6287 100.601C55.6287 99.7018 56.3206 98.9728 57.1741 98.9728H70.1663C71.0198 98.9728 71.7117 99.7018 71.7117 100.601V105.082C71.7117 105.982 71.0198 106.711 70.1663 106.711H57.1741C56.3206 106.711 55.6287 105.982 55.6287 105.082V100.601Z" fill="#35F5BC" fill-opacity="0.0980392"/>
<path d="M71.7117 100.601C71.7117 99.7018 72.4036 98.9728 73.257 98.9728H86.2493C87.1028 98.9728 87.7947 99.7018 87.7947 100.601V105.082C87.7947 105.982 87.1028 106.711 86.2493 106.711H73.257C72.4036 106.711 71.7117 105.982 71.7117 105.082V100.601Z" fill="#35F5BC" fill-opacity="0.0980392"/>
<path d="M87.7947 100.601C87.7947 99.7018 88.4866 98.9728 89.34 98.9728H102.332C103.186 98.9728 103.878 99.7018 103.878 100.601V105.082C103.878 105.982 103.186 106.711 102.332 106.711H89.34C88.4866 106.711 87.7947 105.982 87.7947 105.082V100.601Z" fill="#35F5BC" fill-opacity="0.0980392"/>
<path d="M103.876 100.601C103.876 99.7018 104.568 98.9728 105.421 98.9728H118.413C119.267 98.9728 119.959 99.7018 119.959 100.601V105.082C119.959 105.982 119.267 106.711 118.413 106.711H105.421C104.568 106.711 103.876 105.982 103.876 105.082V100.601Z" fill="#35F5BC" fill-opacity="0.0980392"/>
<path d="M39.5458 107.887C39.5458 106.988 40.2377 106.259 41.0911 106.259H54.0834C54.9369 106.259 55.6287 106.988 55.6287 107.887V112.369C55.6287 113.268 54.9369 113.997 54.0834 113.997H41.0911C40.2377 113.997 39.5458 113.268 39.5458 112.369V107.887Z" fill="#35F5BC" fill-opacity="0.0980392"/>
<path d="M55.6287 107.61C55.6287 106.864 56.2026 106.259 56.9105 106.259H70.4299C71.1378 106.259 71.7117 106.864 71.7117 107.61V112.646C71.7117 113.392 71.1378 113.997 70.4299 113.997H56.9105C56.2026 113.997 55.6287 113.392 55.6287 112.646V107.61Z" fill="#35F5BC" fill-opacity="0.0980392"/>
<path d="M71.7117 107.887C71.7117 106.988 72.4036 106.259 73.257 106.259H86.2493C87.1028 106.259 87.7947 106.988 87.7947 107.887V112.369C87.7947 113.268 87.1028 113.997 86.2493 113.997H73.257C72.4036 113.997 71.7117 113.268 71.7117 112.369V107.887Z" fill="#35F5BC" fill-opacity="0.0980392"/>
<path d="M87.7947 107.887C87.7947 106.988 88.4866 106.259 89.34 106.259H102.332C103.186 106.259 103.878 106.988 103.878 107.887V112.369C103.878 113.268 103.186 113.997 102.332 113.997H89.34C88.4866 113.997 87.7947 113.268 87.7947 112.369V107.887Z" fill="#35F5BC" fill-opacity="0.0980392"/>
<path d="M103.876 107.576C103.876 106.848 104.435 106.259 105.125 106.259H118.709C119.399 106.259 119.959 106.848 119.959 107.576V112.68C119.959 113.407 119.399 113.997 118.709 113.997H105.125C104.435 113.997 103.876 113.407 103.876 112.68V107.576Z" fill="#35F5BC" fill-opacity="0.0980392"/>
<path d="M39.5458 115.197C39.5458 114.298 40.2377 113.569 41.0911 113.569H54.0834C54.9369 113.569 55.6287 114.298 55.6287 115.197V119.679C55.6287 120.578 54.9369 121.307 54.0834 121.307H41.0911C40.2377 121.307 39.5458 120.578 39.5458 119.679V115.197Z" fill="#35F5BC" fill-opacity="0.0980392"/>
<path d="M55.6287 115.197C55.6287 114.298 56.3206 113.569 57.1741 113.569H70.1663C71.0198 113.569 71.7117 114.298 71.7117 115.197V119.679C71.7117 120.578 71.0198 121.307 70.1663 121.307H57.1741C56.3206 121.307 55.6287 120.578 55.6287 119.679V115.197Z" fill="#35F5BC" fill-opacity="0.0980392"/>
<path d="M71.7117 115.197C71.7117 114.298 72.4036 113.569 73.257 113.569H86.2493C87.1028 113.569 87.7947 114.298 87.7947 115.197V119.679C87.7947 120.578 87.1028 121.307 86.2493 121.307H73.257C72.4036 121.307 71.7117 120.578 71.7117 119.679V115.197Z" fill="#35F5BC" fill-opacity="0.0980392"/>
<path d="M87.7947 114.886C87.7947 114.159 88.3541 113.569 89.0442 113.569H102.628C103.318 113.569 103.878 114.159 103.878 114.886V119.99C103.878 120.718 103.318 121.307 102.628 121.307H89.0442C88.3541 121.307 87.7947 120.718 87.7947 119.99V114.886Z" fill="#35F5BC" fill-opacity="0.0980392"/>
<path d="M103.876 114.886C103.876 114.159 104.435 113.569 105.125 113.569H118.709C119.399 113.569 119.959 114.159 119.959 114.886V119.99C119.959 120.718 119.399 121.307 118.709 121.307H105.125C104.435 121.307 103.876 120.718 103.876 119.99V114.886Z" fill="#35F5BC" fill-opacity="0.0980392"/>
<path d="M119.959 100.601C119.959 99.7018 120.651 98.9728 121.504 98.9728H134.496C135.35 98.9728 136.042 99.7018 136.042 100.601V105.082C136.042 105.982 135.35 106.711 134.496 106.711H121.504C120.651 106.711 119.959 105.982 119.959 105.082V100.601Z" fill="#35F5BC" fill-opacity="0.0980392"/>
<path d="M119.959 114.886C119.959 114.159 120.518 113.569 121.208 113.569H134.792C135.482 113.569 136.042 114.159 136.042 114.886V119.99C136.042 120.718 135.482 121.307 134.792 121.307H121.208C120.518 121.307 119.959 120.718 119.959 119.99V114.886Z" fill="#35F5BC" fill-opacity="0.0980392"/>
<path d="M111.255 113.747C111.209 113.709 111.16 113.674 111.109 113.641C111.109 113.641 110.92 111.356 109.739 109.943C108.557 108.531 108.335 104.631 108.335 104.631C108.189 104.606 108.04 104.593 107.892 104.593C107.839 104.471 107.755 104.281 107.664 104.057C107.475 103.564 107.236 102.923 107.217 102.579C107.186 101.98 105.814 98.713 105.814 98.713C105.814 98.713 104.378 91.0832 101.76 88.6617C101.76 88.6617 100.707 87.1134 100.707 86.2743C100.707 85.4352 99.4956 85.0636 99.4956 85.0636C99.4956 85.0636 98.6955 82.6102 98.7618 81.9369C98.8282 81.2636 97.006 79.01 97.006 79.01C97.006 79.01 96.7652 76.7244 96.2969 76.155C95.8285 75.5857 95.9176 74.0313 95.9176 74.0313C95.9176 74.0313 94.5467 72.6907 94.6738 71.8157C94.8008 70.9406 94.2585 69.4941 94.2585 69.4941C94.2585 69.4941 95.2066 67.73 95.3204 66.2975C95.3365 66.1181 95.3365 65.9375 95.3204 65.7581C95.5312 65.7257 95.7341 65.6504 95.9176 65.5364C96.8752 64.6932 95.6958 56.8576 95.6958 56.8576C95.6958 56.8576 94.3856 52.4623 95.0568 49.1598C95.728 45.8573 92.8535 30.5696 92.8535 30.5696C92.8535 30.5696 92.3908 28.8194 91.8922 27.8025C91.8599 27.7386 91.8277 27.6787 91.7955 27.6207C92.1576 27.341 92.279 26.6997 92.279 26.6997C92.279 26.6997 93.6537 24.6838 92.8478 24.1025C92.1159 23.579 90.9138 23.3652 90.5971 22.612C90.5788 22.5646 90.5636 22.5158 90.5516 22.4662C91.3328 22.644 91.9946 22.8038 92.1918 22.8818C92.7606 23.1055 94.1922 23.3752 94.3837 21.8828C94.5752 20.3904 91.7462 16.7063 91.4902 16.5705C91.2342 16.4346 90.8095 15.3158 90.8095 15.3158C91.1072 14.7324 90.2994 14.0612 90.2994 14.0612L89.8823 14.2949C89.8254 13.2181 89.704 11.9994 89.704 11.9994C89.704 11.9994 89.3836 11.2362 88.8091 8.63693C88.2345 6.0377 87.0229 7.23842 86.5982 7.17848C86.1734 7.11855 83.8109 7.51612 82.9178 7.73988C82.0247 7.96364 78.0884 10.9904 77.7982 11.0564C77.5081 11.1223 76.4368 13.2081 76.3079 13.6536C76.2624 13.8134 76.4975 13.9992 76.8047 14.171C76.7592 14.235 76.7156 14.2989 76.6719 14.3708C75.0679 16.8939 75.585 20.2939 77.857 22.1625C77.7888 22.3343 77.7205 22.5082 77.6674 22.686C77.6317 22.7978 77.6026 22.9119 77.5802 23.0276C76.8674 23.3866 76.3389 24.0558 76.1334 24.8597C75.8642 25.9125 75.6006 27.3031 75.923 27.7985C76.2307 28.2584 76.3658 28.8221 76.3022 29.3808C76.3306 29.5147 78.4353 31.3987 78.4353 32.4416C78.4353 33.4845 79.8404 32.2718 80.0964 32.042C80.1476 31.9941 80.3978 31.7963 80.7695 31.5146L80.614 31.9022C80.0831 33.2048 79.317 35.0089 79.0743 35.2006C78.6951 35.5043 76.3932 44.0113 76.4577 45.0182C76.5222 46.0251 76.2681 51.5432 76.2681 51.5432C76.2681 51.5432 75.4698 59.4069 74.8649 60.4198C74.8649 60.4198 74.4478 64.1498 74.0648 64.2497C73.6818 64.3496 73.5244 65.1588 75.5362 65.5304C76.215 65.6542 77.1763 65.7901 78.1509 65.9159L77.8798 66.4174L74.4819 72.6907L71.6377 79.8511C71.6377 79.8511 71.1277 81.6692 70.6176 81.6692C70.1076 81.6692 69.7568 83.4493 69.7568 83.4493C69.7568 83.4493 68.8296 85.3632 69.1519 85.8367C69.4742 86.3102 69.7568 87.5509 69.3415 87.7207C68.9263 87.8905 68.6437 92.3158 68.6437 92.3158L66.3684 100.891C66.3684 100.891 65.7294 101.49 65.8583 102.201C65.9873 102.913 65.2193 102.972 65.2193 102.972C65.0446 103.287 64.9058 103.622 64.806 103.971C64.7965 104.009 64.7927 104.045 64.787 104.079C64.6055 104.165 64.4547 104.309 64.3566 104.491C63.5981 105.871 62.4415 108.726 61.7741 109.064C61.1066 109.402 59.6997 109.701 58.6132 109.601C57.5267 109.502 56.1881 109.977 55.6154 109.619C54.9933 109.295 54.3208 109.092 53.6302 109.02C52.959 108.978 52.5058 109.22 53.0291 110.167C54.1156 112.113 57.1778 114.4 57.8794 114.604C58.581 114.808 64.6448 117.429 65.2838 117.731C65.9228 118.032 67.5478 118.33 67.6141 117.731C67.6805 117.131 67.453 115.779 67.453 115.779C67.4541 115.773 67.4541 115.767 67.453 115.761C67.5686 115.519 68.7177 113.056 68.6286 112.382C68.53 111.677 71.4367 107.879 70.7977 106.768C70.7977 106.768 70.8376 106.555 70.8869 106.265C70.9708 105.821 71.0265 105.372 71.0537 104.92C71.0537 104.415 73.2532 100.483 73.2532 100.483C73.2532 100.483 75.8054 94.6294 75.9078 92.9512C76.0102 91.2729 76.7042 90.9992 76.7042 90.9992C76.7042 90.9992 76.8312 90.8634 77.0227 90.0922C77.2142 89.321 77.055 87.9745 77.055 87.9745C77.055 87.9745 78.1377 87.1753 78.1718 86.6619C78.2059 86.1484 85.3771 76.4088 85.3771 76.4088C85.3771 76.4088 85.8568 76.5087 86.0787 77.3837C86.3005 78.2588 92.461 90.1282 92.461 90.1282C92.461 90.1282 95.237 90.9673 95.4304 92.8812L96.5794 95.001L98.8093 99.1965C98.8093 99.1965 99.5146 101.418 100.408 102.123C100.408 102.123 100.977 103.334 100.758 103.903C100.54 104.473 101.617 104.914 101.617 104.914C101.617 104.914 101.794 105.819 101.875 106.427C101.903 106.587 101.918 106.749 101.921 106.912C101.612 107.274 101.521 107.788 101.684 108.243C102.323 110.494 103.089 111.873 102.442 112.638C101.796 113.403 100.146 115.563 100.146 115.563C100.146 115.563 97.6811 116.338 97.1426 116.562C96.8088 116.708 96.6306 117.215 96.8733 117.709C97.0921 118.094 97.4398 118.379 97.8479 118.508C99.2188 119.047 105.537 118.81 105.537 118.81C105.537 118.81 111.604 116.424 111.855 115.313C112.071 114.508 111.53 113.957 111.255 113.747Z" fill="black" fill-opacity="0.0980392"/>
<path d="M131.595 24.8757C131.597 25.0358 131.59 25.1959 131.574 25.3552C131.315 28.4764 128.734 30.8058 125.767 30.5971C122.8 30.3885 120.536 27.7184 120.672 24.5885C120.808 21.4585 123.294 19.0178 126.267 19.096C129.24 19.1741 131.607 21.7425 131.595 24.8757V24.8757Z" fill="#FDC2CC"/>
<path d="M122.266 21.9548C122.236 22.2165 122.31 22.4802 122.289 22.7419C122.261 23.0836 122.075 23.3813 121.934 23.6889C121.794 23.9966 121.692 24.3682 121.836 24.6739C121.957 24.9336 122.215 25.0735 122.405 25.3032C122.689 25.6648 122.706 26.1943 122.577 26.6438C122.486 26.9654 122.333 27.3251 122.494 27.6147C122.634 27.8645 122.97 27.9564 123.063 28.2281C123.105 28.4033 123.088 28.5885 123.013 28.7515C122.869 29.1611 122.678 29.5507 122.551 29.9662C122.403 30.377 122.381 30.826 122.486 31.2509C122.498 31.3048 122.524 31.3544 122.56 31.3947C122.616 31.4354 122.682 31.4577 122.75 31.4586L123.273 31.5166C123.48 31.5406 123.736 31.5386 123.842 31.3468C123.891 31.2549 123.895 31.129 123.98 31.0751C124.066 31.0211 124.219 31.115 124.31 31.2109C124.833 31.7659 125.519 32.118 126.256 32.2099C126.45 32.2527 126.652 32.2201 126.825 32.118C126.982 32.0021 127.06 31.7943 127.204 31.6764C127.553 31.4047 128.07 31.7104 128.474 31.5426C128.833 31.3927 128.967 30.9312 128.982 30.5236C128.998 30.1161 128.946 29.6905 129.113 29.3249C129.257 29.0821 129.42 28.8522 129.601 28.6377C129.889 28.1641 130.001 27.5946 129.913 27.0394C129.827 26.4916 129.668 25.9595 129.439 25.459C129.077 24.58 128.658 23.6949 127.983 23.0616C127.832 22.9356 127.695 22.7922 127.574 22.6341C127.266 22.1785 127.348 21.5112 127.005 21.0857C126.73 20.7421 126.261 20.6602 125.835 20.6681C125.245 20.6778 124.664 20.818 124.128 21.0797C123.967 21.1691 123.794 21.2363 123.616 21.2795C123.285 21.3414 123.12 21.0417 122.799 21.1916C122.508 21.3315 122.306 21.6203 122.266 21.9548Z" fill="#464A5F"/>
<path d="M123.878 21.2975C124.057 21.2555 124.23 21.1883 124.392 21.0977C124.907 20.8492 125.465 20.7133 126.032 20.6981C125.966 20.6981 125.899 20.6981 125.842 20.6981C125.252 20.7078 124.671 20.848 124.136 21.1097C123.984 21.1949 123.823 21.2619 123.656 21.3095C123.73 21.3218 123.806 21.3177 123.878 21.2975Z" fill="black" fill-opacity="0.0980392"/>
<path d="M123.529 31.5166L123.004 31.4587C122.936 31.458 122.87 31.4357 122.814 31.3947C122.777 31.3557 122.752 31.3066 122.74 31.2529C122.635 30.8274 122.657 30.3781 122.803 29.9662C122.932 29.5507 123.123 29.1671 123.266 28.7515C123.341 28.5888 123.358 28.4032 123.315 28.2281C123.218 27.9564 122.883 27.8645 122.746 27.6147C122.583 27.3271 122.746 26.9654 122.829 26.6438C122.958 26.1943 122.941 25.6648 122.657 25.3032C122.481 25.0795 122.215 24.9336 122.088 24.6739C121.944 24.3682 122.044 23.9966 122.185 23.6909C122.325 23.3853 122.513 23.0916 122.541 22.7419C122.562 22.4802 122.488 22.2165 122.518 21.9548C122.564 21.6252 122.768 21.3437 123.057 21.2096C123.077 21.2014 123.098 21.1947 123.12 21.1896C123.015 21.1537 122.902 21.1609 122.803 21.2096C122.514 21.3441 122.31 21.6253 122.263 21.9548C122.232 22.2165 122.306 22.4802 122.285 22.7419C122.257 23.0836 122.071 23.3833 121.931 23.6909C121.79 23.9986 121.688 24.3682 121.832 24.6739C121.953 24.9336 122.211 25.0735 122.401 25.3032C122.685 25.6648 122.702 26.1943 122.573 26.6438C122.482 26.9654 122.329 27.3271 122.49 27.6147C122.63 27.8645 122.966 27.9564 123.059 28.2281C123.101 28.4033 123.084 28.5885 123.01 28.7515C122.865 29.1611 122.674 29.5507 122.547 29.9662C122.399 30.3777 122.377 30.8273 122.482 31.2529C122.495 31.3062 122.52 31.3552 122.556 31.3947C122.612 31.4354 122.678 31.4577 122.746 31.4587L123.269 31.5166C123.361 31.5276 123.453 31.5276 123.544 31.5166H123.529Z" fill="black" fill-opacity="0.0980392"/>
<path d="M126.51 32.2178C125.773 32.1245 125.088 31.7726 124.564 31.2189C124.475 31.123 124.344 31.0191 124.234 31.0831C124.221 31.0924 124.209 31.1047 124.2 31.119C124.239 31.1491 124.276 31.1825 124.31 31.2189C124.834 31.773 125.519 32.125 126.256 32.2178C126.358 32.2309 126.462 32.2309 126.565 32.2178H126.51Z" fill="black" fill-opacity="0.0980392"/>
<path d="M127.748 31.5725C127.922 31.5947 128.098 31.6021 128.273 31.5945C128.099 31.5695 127.923 31.5622 127.748 31.5725Z" fill="black" fill-opacity="0.0980392"/>
<path d="M152.838 112.011C152.487 113.997 146.711 114.332 146.798 114.266C146.82 114.086 146.809 113.903 146.766 113.727C146.685 113.128 146.508 112.217 146.508 112.217C146.508 112.217 145.428 111.777 145.649 111.204C145.871 110.63 145.299 109.424 145.299 109.424C144.405 108.718 143.702 106.497 143.702 106.497L141.47 102.301L140.321 100.181C140.132 98.2675 137.352 97.4284 137.352 97.4284C137.352 97.4284 131.193 85.559 130.97 84.684C130.746 83.8089 130.268 83.711 130.268 83.711C130.268 83.711 123.097 93.4526 123.065 93.9681C123.032 94.4835 121.948 95.2807 121.948 95.2807C121.948 95.2807 122.107 96.6253 121.916 97.3964C121.724 98.1676 121.597 98.3035 121.597 98.3035C121.597 98.3035 120.893 98.5732 120.801 100.255C120.708 101.938 118.146 107.787 118.146 107.787C118.146 107.787 115.946 111.719 115.946 112.227C115.919 112.678 115.863 113.127 115.78 113.571C115.732 113.859 115.691 114.075 115.691 114.075C115.691 114.075 110.203 111.911 109.79 111.749C109.648 111.691 109.64 111.495 109.695 111.264C109.795 110.915 109.934 110.579 110.108 110.265C110.108 110.265 110.867 110.201 110.747 109.494C110.628 108.786 111.257 108.183 111.257 108.183L113.533 99.6081C113.533 99.6081 113.817 95.1708 114.232 95.003C114.648 94.8352 114.359 93.5885 114.043 93.121C113.726 92.6535 114.648 90.7236 114.648 90.7236C114.648 90.7236 114.997 88.9435 115.508 88.9435C116.02 88.9435 116.529 87.1254 116.529 87.1254L119.373 79.965L122.771 73.6917L123.489 72.3671C123.489 72.3671 137.786 71.0206 139.54 71.8956C140.13 72.1893 140.28 72.8366 140.219 73.5658C140.097 75.0043 139.157 76.7624 139.157 76.7624C139.157 76.7624 139.699 78.2109 139.572 79.084C139.445 79.957 140.816 81.3016 140.816 81.3016C140.816 81.3016 140.721 82.85 141.195 83.4233C141.669 83.9967 141.904 86.2803 141.904 86.2803C141.904 86.2803 143.723 88.5339 143.66 89.2072C143.598 89.8805 144.394 92.3319 144.394 92.3319C144.394 92.3319 145.606 92.7035 145.606 93.5426C145.606 94.3817 146.658 95.94 146.658 95.94C149.263 98.3634 150.699 105.995 150.699 105.995C150.699 105.995 152.072 109.258 152.102 109.859C152.121 110.205 152.352 110.844 152.549 111.34C152.705 111.719 152.838 112.011 152.838 112.011Z" fill="#5F5D7E"/>
<path d="M131.595 24.8757C131.597 25.0358 131.59 25.1959 131.574 25.3552C130.93 25.7068 130.289 26.0484 129.756 26.3321C128.998 26.7317 128.469 27.0034 128.469 27.0034C128.469 27.0034 125.681 25.2053 125.171 24.3802C124.661 23.5551 123.085 22.2964 123.085 22.2964C123.085 22.2964 122.691 22.1705 122.262 21.9907C122.019 21.8924 121.783 21.7763 121.555 21.6431C122.909 19.5402 125.405 18.6121 127.712 19.354C130.018 20.0959 131.597 22.3347 131.605 24.8757L131.595 24.8757Z" fill="black" fill-opacity="0.0980392"/>
<path d="M123.085 22.0287C123.085 22.0287 121.064 21.3774 121.189 20.9299C121.314 20.4823 122.38 18.3966 122.678 18.3326C122.975 18.2687 126.912 15.2379 127.797 15.0142C128.683 14.7904 131.051 14.3868 131.478 14.4548C131.904 14.5227 133.116 13.312 133.69 15.9112C134.265 18.5104 134.584 19.2736 134.584 19.2736C134.584 19.2736 134.923 22.658 134.731 23.1295C134.54 23.601 128.457 26.7377 128.457 26.7377C128.457 26.7377 125.67 24.9396 125.16 24.1145C124.65 23.2893 123.085 22.0287 123.085 22.0287Z" fill="#65617D"/>
<path d="M140.209 73.5718C137.452 74.1892 126.889 74.1892 126.889 74.1892C126.889 74.1892 124.743 73.9634 122.757 73.6997L123.476 72.3751C123.476 72.3751 137.773 71.0285 139.527 71.9036C140.12 72.1913 140.27 72.8426 140.209 73.5718Z" fill="black" fill-opacity="0.0980392"/>
<path d="M140.807 72.8106C139.859 73.6497 126.893 73.6497 126.893 73.6497C126.893 73.6497 122.426 73.1782 120.418 72.8106C118.41 72.443 118.563 71.6319 118.946 71.53C119.329 71.4281 119.746 67.7001 119.746 67.7001C120.351 66.6891 121.149 58.8235 121.149 58.8235C121.149 58.8235 121.405 53.3094 121.339 52.2985C121.273 51.2875 123.573 42.7846 123.956 42.4809C124.198 42.2811 124.964 40.483 125.495 39.1824C125.801 38.4272 126.032 37.8438 126.032 37.8438C127.657 34.7511 135.666 34.0079 136.303 34.4115C136.511 34.5898 136.674 34.8189 136.779 35.0788C137.28 36.0957 137.741 37.8438 137.741 37.8438C137.741 37.8438 140.613 53.1396 139.944 56.436C139.275 59.7325 140.583 64.1339 140.583 64.1339C140.583 64.1339 141.764 71.9695 140.807 72.8106Z" fill="#35F5BC"/>
<path d="M128.969 70.1535H131.842V71.498H128.969V70.1535Z" fill="#5F5D7E"/>
<path d="M124.597 72.6748C124.597 72.6748 123.127 75.4718 122.617 75.5657C122.107 75.6596 121.373 79.9031 124.308 81.3595C127.244 82.816 127.342 77.0221 127.342 77.0221L128.51 72.1473L125.33 70.9026L124.597 72.6748Z" fill="black" fill-opacity="0.0980392"/>
<path d="M124.341 72.4051C124.341 72.4051 122.873 75.2021 122.363 75.298C121.853 75.3939 121.117 79.6354 124.054 81.0798C126.991 82.5243 127.088 76.7424 127.088 76.7424L128.254 71.8676L125.076 70.6229L124.341 72.4051Z" fill="#464A5F"/>
<path d="M136.69 84.8118C136.69 84.8118 138.988 87.4091 140.232 86.2583C141.476 85.1075 136.69 84.8118 136.69 84.8118Z" fill="black" fill-opacity="0.0980392"/>
<path d="M140.297 88.8475C140.297 88.8475 142.178 91.3349 142.21 89.9903C142.242 88.6457 140.297 88.8475 140.297 88.8475Z" fill="black" fill-opacity="0.0980392"/>
<path d="M142.21 94.7672C142.21 94.7672 143.55 94.8671 144.03 94.1279L142.21 94.7672Z" fill="black" fill-opacity="0.0980392"/>
<path d="M143.55 96.9829C143.55 96.9829 144.443 97.4884 145.05 96.7152L143.55 96.9829Z" fill="black" fill-opacity="0.0980392"/>
<path d="M127.34 78.9281C127.34 78.9281 127.909 82.3584 130.276 83.703L127.34 78.9281Z" fill="black" fill-opacity="0.0980392"/>
<path d="M117.831 97.7641C117.831 97.7641 117.543 98.6391 119.14 98.8749C120.736 99.1106 117.831 97.7641 117.831 97.7641Z" fill="black" fill-opacity="0.0980392"/>
<path d="M118.565 94.7672C118.565 94.7672 119.617 96.847 120.033 96.7132L118.565 94.7672Z" fill="black" fill-opacity="0.0980392"/>
<path d="M119.906 92.9392C119.906 92.9392 120.224 93.8902 121.022 93.7903C121.821 93.6904 119.906 92.9392 119.906 92.9392Z" fill="black" fill-opacity="0.0980392"/>
<path d="M115.783 113.561C115.736 113.849 115.694 114.065 115.694 114.065C115.694 114.065 110.203 111.911 109.79 111.749C109.648 111.691 109.64 111.495 109.695 111.264C110.616 110.395 112.759 111.985 112.759 111.985C112.759 111.985 114.957 112.586 115.783 113.561Z" fill="black" fill-opacity="0.0980392"/>
<path d="M112.35 123.055C112.35 123.062 112.35 123.068 112.35 123.075C112.35 123.075 112.571 124.42 112.511 125.025C112.45 125.63 110.817 125.327 110.18 125.025C109.543 124.723 103.479 122.098 102.785 121.898C102.091 121.699 99.0197 119.409 97.9351 117.461C97.4118 116.516 97.8631 116.262 98.5343 116.314C99.2249 116.387 99.8975 116.59 100.52 116.914C101.088 117.271 102.435 116.794 103.517 116.894C104.6 116.994 106.009 116.694 106.678 116.356C107.348 116.019 108.495 113.16 109.261 111.783C110.027 110.407 112.518 112.255 112.518 112.255C112.518 112.255 115.055 112.948 115.702 114.065C116.348 115.182 113.427 118.973 113.533 119.677C113.639 120.38 112.465 122.813 112.35 123.055Z" fill="#464A5F"/>
<path d="M112.503 125.025C112.437 125.624 110.81 125.327 110.173 125.025C109.536 124.723 103.472 122.098 102.778 121.898C102.084 121.699 99.0121 119.409 97.9276 117.461C97.4042 116.516 97.8555 116.262 98.5267 116.314C98.8881 117.125 99.4534 117.816 100.161 118.312C102.044 119.711 106.128 121.685 106.128 121.685C106.128 121.685 108.426 121.585 109.479 122.284C110.173 122.749 111.523 122.951 112.357 123.037C112.358 123.044 112.358 123.05 112.357 123.057C112.357 123.057 112.564 124.42 112.503 125.025Z" fill="#464A5F"/>
<path d="M111.608 114.272C111.608 114.272 109.342 118.804 109.342 119.107C109.342 119.411 108.449 122.234 108.449 122.234L110.029 122.907L110.62 119.275L112.725 114.904L111.608 114.272Z" fill="#464A5F"/>
<path d="M152.838 112.011C152.487 113.997 146.711 114.332 146.798 114.266C146.82 114.086 146.809 113.903 146.766 113.727C147.53 112.748 149.643 112.748 149.643 112.748C150.406 111.907 151.446 111.407 152.549 111.35C152.705 111.719 152.838 112.011 152.838 112.011Z" fill="black" fill-opacity="0.0980392"/>
<path d="M156.761 122.636C156.507 123.746 150.443 126.132 150.443 126.132C150.443 126.132 144.125 126.37 142.754 125.832C142.346 125.702 141.999 125.418 141.779 125.033C141.537 124.542 141.715 124.034 142.049 123.888C142.593 123.652 145.052 122.879 145.052 122.879C145.052 122.879 146.711 120.728 147.348 119.952C147.985 119.177 147.221 117.801 146.59 115.557C145.958 113.314 149.643 113.292 149.643 113.292C151.302 111.509 153.217 111.911 153.217 111.911C153.217 111.911 153.439 115.813 154.62 117.223C155.801 118.634 155.991 120.923 155.991 120.923C156.042 120.955 156.09 120.989 156.137 121.027C156.414 121.243 156.956 121.794 156.761 122.636Z" fill="#464A5F"/>
<path d="M156.761 122.636C156.507 123.746 150.443 126.132 150.443 126.132C150.443 126.132 144.125 126.37 142.754 125.832C142.346 125.702 141.999 125.418 141.779 125.033C143.086 125.249 145.549 125.632 145.951 125.536C146.491 125.403 148.605 125.636 149.811 124.526C151.017 123.415 152.845 122.642 152.845 122.642C152.845 122.642 155.02 121.711 156.148 121.043C156.414 121.243 156.956 121.794 156.761 122.636Z" fill="#464A5F"/>
<path d="M150.475 115.241L151.592 119.679L153.029 123.175L154.178 122.604L152.487 119.209L151.273 115.241H150.475Z" fill="#464A5F"/>
<path d="M112.725 114.904L111.608 114.272C111.608 114.272 109.342 118.804 109.342 119.107C109.342 119.347 108.773 121.179 108.548 121.922C107.75 121.745 106.935 121.669 106.121 121.695C106.121 121.695 102.036 119.713 100.154 118.322C99.4458 117.826 98.8805 117.135 98.5192 116.324C97.8479 116.282 97.3966 116.524 97.92 117.471C99.0046 119.419 102.067 121.705 102.77 121.908C103.474 122.112 109.534 124.733 110.165 125.035C110.797 125.337 112.429 125.634 112.496 125.035C112.562 124.436 112.334 123.085 112.334 123.085C112.335 123.078 112.335 123.072 112.334 123.065C111.562 123.001 110.799 122.848 110.059 122.608L110.599 119.285L112.725 114.904Z" fill="black" fill-opacity="0.0980392"/>
<path d="M156.141 121.027C155.543 121.387 154.652 121.816 153.947 122.142L152.487 119.207L151.275 115.241H150.477L151.594 119.679L152.813 122.648C152.591 122.745 150.936 123.487 149.808 124.52C148.594 125.63 146.487 125.397 145.947 125.53C145.551 125.626 143.088 125.243 141.776 125.027C141.995 125.412 142.342 125.696 142.75 125.826C144.121 126.364 150.439 126.126 150.439 126.126C150.439 126.126 156.507 123.74 156.757 122.63C156.956 121.794 156.414 121.243 156.141 121.027Z" fill="black" fill-opacity="0.0980392"/>
<path d="M126.978 27.9904C126.978 27.9904 129.807 24.4721 130.702 23.9107C131.597 23.3493 135.19 21.3334 135.19 21.3334C135.19 21.3334 135.998 22.0067 135.7 22.5881C135.7 22.5881 136.127 23.7089 136.381 23.8448C136.635 23.9806 139.466 27.6547 139.275 29.1571C139.083 30.6595 137.657 30.3898 137.083 30.156C136.508 29.9223 132.064 29.0133 132.064 29.0133L126.978 27.9904Z" fill="#35F5BC"/>
<path d="M131.298 25.5709C131.298 25.5709 133.233 24.9716 133.383 25.5709C133.533 26.1703 131.298 25.5709 131.298 25.5709Z" fill="black" fill-opacity="0.0980392"/>
<path d="M136.781 35.0788C136.742 35.1175 136.701 35.1535 136.658 35.1867C136.279 35.4544 132.221 35.4544 131.298 35.4544C130.528 35.4544 126.876 38.1276 125.497 39.1824C125.803 38.4272 126.034 37.8439 126.034 37.8439C127.659 34.7511 135.668 34.0079 136.305 34.4115C136.513 34.5899 136.676 34.8189 136.781 35.0788Z" fill="black" fill-opacity="0.0980392"/>
<path d="M137.168 33.976C137.168 33.976 137.041 34.6473 136.658 34.917C136.275 35.1867 132.221 35.1867 131.298 35.1867C130.374 35.1867 125.23 39.0865 124.98 39.3223C124.729 39.558 123.319 40.7668 123.319 39.7219C123.319 38.677 121.214 36.795 121.185 36.6611C121.249 36.1024 121.114 35.5387 120.806 35.0788C120.484 34.5833 120.747 33.1928 121.017 32.1399C121.224 31.3368 121.752 30.6682 122.463 30.3079C123.633 29.7085 125.467 28.7555 126.423 28.1222C126.656 27.9644 127.046 27.9004 127.539 27.8984C130.111 27.8984 135.431 29.6706 135.431 29.6706C135.444 29.7461 135.465 29.8198 135.494 29.8903C135.81 30.6435 137.011 30.8553 137.744 31.3807C138.543 31.9581 137.168 33.976 137.168 33.976Z" fill="#5F5D7E"/>
<path d="M122.458 33.6723C122.458 33.6723 125.552 33.8401 125.713 33.992C125.875 34.1438 122.458 33.6723 122.458 33.6723Z" fill="black" fill-opacity="0.0980392"/>
<path d="M130.947 37.1706C130.947 37.1706 126.106 39.6579 126.468 41.6758C126.468 41.6758 127.084 42.381 126.798 43.1542C126.512 43.9274 126.256 49.3736 126.608 49.7771C126.961 50.1807 127.342 51.1557 127.151 51.829C126.959 52.5022 127.437 55.527 127.437 55.527C127.437 55.527 128.141 57.0394 127.31 57.3771C126.48 57.7147 127.215 58.8215 127.215 58.8215C127.215 58.8215 127.215 60.2001 126.438 60.268C125.66 60.3359 126.29 62.084 126.29 62.084C126.29 62.084 125.911 63.2608 125.3 63.1589C124.69 63.057 125.651 64.8411 125.651 64.8411C125.651 64.8411 123.321 66.4874 123.609 69.2125L123.286 71.0605L127.881 73.1463L128.488 71.9356C128.488 71.9356 129.731 71.6319 129.572 70.8247C129.413 70.0176 130.403 69.5481 130.403 69.5481C130.403 69.5481 130.592 68.3034 131.231 67.766C131.87 67.2286 132.858 64.941 132.858 64.941C132.858 64.941 133.427 63.6644 134.231 63.1269C135.035 62.5895 135.666 59.9663 135.666 59.9663L136.146 41.9095C136.146 41.9095 134.392 36.3634 130.947 37.1706Z" fill="black" fill-opacity="0.0980392"/>
<path d="M131.967 37.1706C131.967 37.1706 127.128 39.6579 127.488 41.6758C127.488 41.6758 128.106 42.381 127.818 43.1542C127.53 43.9274 127.276 49.3736 127.629 49.7771C127.981 50.1807 128.362 51.1557 128.171 51.829C127.979 52.5022 128.459 55.527 128.459 55.527C128.459 55.527 129.161 57.0394 128.332 57.3771C127.503 57.7147 128.235 58.8215 128.235 58.8215C128.235 58.8215 128.247 60.2001 127.46 60.268C126.673 60.3359 127.31 62.084 127.31 62.084C127.31 62.084 126.931 63.2608 126.32 63.1589C125.71 63.057 126.673 64.8411 126.673 64.8411C126.673 64.8411 124.343 66.4874 124.629 69.2125L124.31 71.0605L128.907 73.1463L129.511 71.9356C129.511 71.9356 130.757 71.6319 130.596 70.8247C130.435 70.0176 131.426 69.5481 131.426 69.5481C131.426 69.5481 131.616 68.3034 132.257 67.766C132.898 67.2286 133.884 64.941 133.884 64.941C133.884 64.941 134.453 63.6644 135.257 63.1269C136.061 62.5895 136.692 59.9663 136.692 59.9663L137.17 41.9095C137.17 41.9095 135.422 36.3634 131.967 37.1706Z" fill="black" fill-opacity="0.0980392"/>
<path d="M131.457 37.1706C131.457 37.1706 126.616 39.6579 126.978 41.6758C126.978 41.6758 127.596 42.381 127.308 43.1542C127.02 43.9274 126.766 49.3736 127.118 49.7771C127.471 50.1807 127.852 51.1557 127.661 51.829C127.469 52.5022 127.949 55.527 127.949 55.527C127.949 55.527 128.651 57.0394 127.82 57.3771C126.99 57.7147 127.725 58.8215 127.725 58.8215C127.725 58.8215 127.735 60.2001 126.948 60.268C126.161 60.3359 126.8 62.084 126.8 62.084C126.8 62.084 126.421 63.2608 125.81 63.1589C125.2 63.057 126.161 64.8411 126.161 64.8411C126.161 64.8411 123.832 66.4874 124.119 69.2125L123.8 71.0605L128.395 73.1463L129.001 71.9356C129.001 71.9356 130.245 71.6319 130.086 70.8247C129.927 70.0176 130.916 69.5481 130.916 69.5481C130.916 69.5481 131.106 68.3034 131.745 67.766C132.384 67.2286 133.374 64.941 133.374 64.941C133.374 64.941 133.943 63.6644 134.745 63.1269C135.547 62.5895 136.18 59.9663 136.18 59.9663L136.658 41.9095C136.658 41.9095 134.902 36.3634 131.457 37.1706Z" fill="#35F5BC"/>
<path d="M128.106 60.0043C128.106 60.0043 129.415 61.3169 129.415 61.6865C129.415 62.0561 127.691 61.0132 127.691 61.0132L128.106 60.0043Z" fill="black" fill-opacity="0.0980392"/>
<path d="M127.34 63.2268C127.34 63.2268 128.616 64.7392 128.201 64.8071C127.786 64.8751 127.34 63.2268 127.34 63.2268Z" fill="black" fill-opacity="0.0980392"/>
<path d="M129.415 67.9678C129.415 67.9678 126.51 68.4712 127.181 68.673C127.852 68.8748 129.415 67.9678 129.415 67.9678Z" fill="black" fill-opacity="0.0980392"/>
<path d="M130.228 57.9824C130.228 57.9824 135.477 60.4698 134.589 61.1431C133.702 61.8163 130.228 57.9824 130.228 57.9824Z" fill="black" fill-opacity="0.0980392"/>
<path d="M135.488 29.8943C135.363 29.7924 126.978 27.9903 126.978 27.9903L127.534 27.9024C130.105 27.9024 135.425 29.6746 135.425 29.6746C135.438 29.7501 135.459 29.8238 135.488 29.8943Z" fill="black" fill-opacity="0.0980392"/>
<path d="M129.509 16.9841C129.509 16.9841 132.02 20.4704 133.211 19.5813C134.402 18.6922 131.339 16.7164 129.509 16.9841Z" fill="black" fill-opacity="0.0980392"/>
<path d="M123.798 37.3384C123.798 37.3384 125.928 36.6651 126.108 36.5392C126.288 36.4134 123.798 37.3384 123.798 37.3384Z" fill="black" fill-opacity="0.0980392"/>
<path d="M133.766 33.958C133.766 33.958 135.983 34.1578 136.195 34.0958C136.408 34.0339 133.766 33.958 133.766 33.958Z" fill="black" fill-opacity="0.0980392"/>
<path d="M134.927 31.5546C134.927 31.5546 137.141 31.7543 137.356 31.6904C137.57 31.6265 134.927 31.5546 134.927 31.5546Z" fill="black" fill-opacity="0.0980392"/>
<path d="M128.725 31.4067C128.725 31.4067 130.939 31.6065 131.153 31.5446C131.368 31.4826 128.725 31.4067 128.725 31.4067Z" fill="black" fill-opacity="0.0980392"/>
<path d="M123.286 36.1337C123.286 36.1337 125.414 35.4604 125.594 35.3345C125.774 35.2087 123.286 36.1337 123.286 36.1337Z" fill="black" fill-opacity="0.0980392"/>
<path d="M196.325 95.3067L194.882 119.641C194.768 121.526 193.285 122.995 191.492 122.997H174.103C172.31 122.995 170.826 121.526 170.712 119.641L169.269 95.3067C169.258 95.0614 169.343 94.822 169.504 94.6444C169.665 94.4669 169.888 94.3668 170.121 94.3677H195.493C195.726 94.3695 195.948 94.4718 196.107 94.6508C196.266 94.8298 196.348 95.0698 196.335 95.3147L196.325 95.3067Z" fill="#464A5F"/>
<path d="M179.791 93.8262C180.233 94.012 180.997 94.3637 180.997 93.7024C180.997 93.4247 180.781 93.4027 180.576 93.3308C179.807 93.0368 179.15 92.4861 178.705 91.7625C177.901 90.5118 177.715 89.2631 177.715 87.7667C177.715 84.4542 182.046 83.8549 182.046 80.5404C182.046 79.2718 181.287 78.9001 181.287 78.5425C181.287 78.3148 181.355 78.3148 181.572 78.3148C182.355 78.3148 183.443 79.6893 183.775 80.3606C183.96 80.7089 184.042 81.1076 184.01 81.5054C184.01 82.2286 183.942 82.9718 183.942 83.703C183.942 86.4901 187.067 85.7469 187.067 84.4043C187.067 83.7849 186.714 83.2056 186.714 82.6062C186.714 82.5343 186.714 82.4823 186.784 82.4823C187.116 82.4823 187.704 83.2815 187.87 83.5252C188.439 84.4442 188.703 85.6729 188.703 86.7658C188.703 90.1102 185.813 91.8244 185.813 92.5476C185.813 92.6495 186.098 93.3468 186.998 92.7474C189.909 91.1891 192.201 87.8326 192.201 83.4773C192.201 80.009 191.348 77.5216 189.056 74.9503C188.676 74.5268 187.45 73.2062 186.852 73.2062C186.048 73.2062 187.558 75.1261 187.558 76.4268C187.577 76.7695 187.456 77.1047 187.226 77.3473C186.995 77.5899 186.677 77.7166 186.352 77.6954C185.214 77.6954 184.931 75.0742 184.795 74.2591C184.226 70.7688 183.54 68.2515 180.244 66.6092C179.226 66.0938 176.668 65.3905 176.668 66.3835C176.668 66.6312 176.934 66.805 177.119 66.9089C178.02 67.4863 179.04 69.1185 179.04 70.8527C179.04 75.6116 173.386 79.957 173.386 84.9117C173.367 89.0713 176.139 92.4057 179.783 93.8102L179.791 93.8262Z" fill="#35F5BC"/>
</g>
<defs>
<clipPath id="clip0_2_12">
<rect width="205" height="128" fill="white" transform="translate(-5)"/>
</clipPath>
</defs>
</svg>
