<svg width="200" height="150" viewBox="0 0 200 150" fill="none" xmlns="http://www.w3.org/2000/svg">
<g clip-path="url(#clip0_3_171)">
<g clip-path="url(#clip1_3_171)">
<path d="M175.17 134.834C175.17 134.834 175.319 132.399 178.374 132.682Z" fill="#3F3D56"/>
<path d="M174.306 132.517C175.151 132.517 175.836 131.983 175.836 131.325C175.836 130.666 175.151 130.132 174.306 130.132C173.462 130.132 172.777 130.666 172.777 131.325C172.777 131.983 173.462 132.517 174.306 132.517Z" fill="#CED669"/>
<path d="M174.489 133.333H174.057V135.689H174.489V133.333Z" fill="#3F3D56"/>
<path d="M71.3437 63.2436C71.3437 63.84 71.3189 64.4313 71.2693 65.0177C70.9914 68.3994 69.8956 71.7096 68.0398 74.7738C68.0254 74.8 68.0085 74.8243 67.9943 74.8486C67.9079 74.9907 67.8191 75.1327 67.728 75.273C67.1761 76.1396 66.5638 76.9821 65.8939 77.7966C62.8338 81.5358 58.6396 84.6297 53.6818 86.805C48.724 88.9803 43.1553 90.17 37.4678 90.2689L37.8107 105.643L42.2822 103.807L43.0807 104.99L37.8443 107.14L38.4845 135.692L38.4916 136.074L35.0343 136.674L35.0414 136.291L36.1299 90.2708C31.552 90.2196 27.0328 89.4598 22.8346 88.0356C18.6364 86.6115 14.8429 84.5512 11.6743 81.9746C11.4562 81.7989 11.2403 81.6175 11.0293 81.4381C11.0197 81.4306 11.0126 81.4231 11.0053 81.4175C8.36535 79.1728 6.23026 76.5968 4.69007 73.798C4.72367 73.8279 4.7596 73.856 4.79321 73.8859C1.31231 67.5394 1.07622 60.3953 4.13333 53.9175C7.19044 47.4396 13.3093 42.1186 21.2359 39.0448C21.3558 38.9981 21.4781 38.9532 21.598 38.9065C29.439 35.9618 38.4127 35.4215 46.7405 37.3927C55.0683 39.3638 62.1423 43.7025 66.5604 49.5487C66.7715 49.8254 66.9753 50.1077 67.1718 50.3918C69.9163 54.3372 71.3504 58.7554 71.3437 63.2436Z" fill="#E5E5E5"/>
<path d="M66.6764 74.8633C91.7746 74.8633 112.121 59 112.121 39.4317C112.121 19.8633 91.7746 4 66.6764 4C41.5783 4 21.2323 19.8633 21.2323 39.4317C21.2323 59 41.5783 74.8633 66.6764 74.8633Z" fill="#CED669"/>
<path opacity="0.2" d="M33.1219 15.7661C23.2554 33.7606 33.9667 54.5843 57.0462 62.2769C65.8026 65.1955 75.5136 65.8959 84.8081 64.279C94.1025 62.6621 102.511 58.8098 108.845 53.2659C98.9799 71.261 72.2721 79.6134 49.1919 71.9216C26.1117 64.2297 15.399 43.4064 25.2645 25.4113C27.1971 21.886 29.8508 18.6286 33.1219 15.7661V15.7661Z" fill="black"/>
<path d="M69.1355 138.138L64.4937 137.122L64.5033 136.734L65.8939 77.7966L65.9635 74.858L65.9659 74.772L66.208 64.4755L66.5605 49.5506V49.5487L66.8002 39.4318H66.9273L67.1719 50.3918L67.4907 64.6569L67.7185 74.7794V74.8542L67.7281 75.2711V75.2729L68.1693 95.004L68.2148 96.965L69.1259 137.745L69.1355 138.138Z" fill="#3F3D56"/>
<path d="M74.029 92.5984L66.5169 95.6819L67.5638 97.2323L75.0759 94.1487L74.029 92.5984Z" fill="#3F3D56"/>
<path d="M65.7861 145.27H44.3583V145.644H65.7861V145.27Z" fill="#CBCBCB"/>
<path d="M166.246 146.766H144.818V147.14H166.246V146.766Z" fill="#CBCBCB"/>
<path d="M156.459 131.554V120.679C156.459 120.679 161.894 128.389 156.459 131.554Z" fill="#F1F1F1"/>
<path d="M156.795 131.552L146.52 124.197C146.52 124.197 157.48 126.289 156.795 131.552Z" fill="#F1F1F1"/>
<path d="M50.2447 134.171V123.296C50.2447 123.296 55.6803 131.006 50.2447 134.171Z" fill="#F1F1F1"/>
<path d="M50.5804 134.169L40.3057 126.815C40.3057 126.815 51.266 128.906 50.5804 134.169Z" fill="#F1F1F1"/>
<path d="M87.1679 142.022V128.499C87.1679 128.499 93.9271 138.086 87.1679 142.022Z" fill="#F1F1F1"/>
<path d="M87.5854 142.02L74.8086 132.875C74.8086 132.875 88.4379 135.476 87.5854 142.02Z" fill="#F1F1F1"/>
<path d="M197 140.368L196.868 140.728L156.629 131.793L126.316 137.003L87.5492 142.166L87.4964 142.155L69.1355 138.138L64.4937 137.122L50.3167 134.019L38.4916 136.074L35.0343 136.674L27.5178 137.981L27.4147 137.616L35.0415 136.291L38.4844 135.692L50.331 133.634L50.3886 133.645L64.5033 136.734L69.1259 137.745L87.5731 141.783L126.223 136.636L156.644 131.408L156.703 131.419L197 140.368Z" fill="#CBCBCB"/>
<path d="M125.01 26.7009L128.077 24.7879C125.694 24.5829 124.715 25.5963 124.314 26.3983C122.452 25.7956 120.426 26.5855 120.426 26.5855L126.564 28.3229C126.254 27.678 125.715 27.1154 125.01 26.7009V26.7009Z" fill="#3F3D56"/>
<path d="M12.322 25.9531L15.3897 24.0402C13.0065 23.8352 12.0273 24.8485 11.6266 25.6506C9.76478 25.0478 7.73796 25.8378 7.73796 25.8378L13.8759 27.5751C13.5662 26.9303 13.0272 26.3676 12.322 25.9531V25.9531Z" fill="#3F3D56"/>
<path d="M118.296 62.4056L121.364 60.4926C118.981 60.2876 118.002 61.301 117.601 62.1031C115.739 61.5003 113.712 62.2902 113.712 62.2902L119.85 64.0276C119.541 63.3827 119.002 62.8201 118.296 62.4056V62.4056Z" fill="#3F3D56"/>
<path d="M97.4623 144.684L99.8069 145.363L104.283 138.635L100.822 137.633L97.4623 144.684Z" fill="#FFB7B7"/>
<path d="M97.1486 143.913L101.766 145.251L101.766 145.251C102.547 145.477 103.18 145.936 103.527 146.526C103.873 147.116 103.905 147.789 103.615 148.398L103.58 148.472L96.0198 146.282L97.1486 143.913Z" fill="#2F2E41"/>
<path d="M120.536 146.582L123.037 146.582L124.227 139.06L120.535 139.06L120.536 146.582Z" fill="#FFB7B7"/>
<path d="M120.102 145.945L125.028 145.945H125.028C125.86 145.945 126.659 146.203 127.248 146.662C127.836 147.121 128.167 147.743 128.167 148.393V148.472L120.102 148.472L120.102 145.945Z" fill="#2F2E41"/>
<path d="M109.085 94.414L109.901 93.1414L116.837 95.8456L116.633 96.959L117.959 98.3111C117.959 98.3111 120.204 99.2655 119.795 102.447L119.387 105.469L118.877 109.366L122.448 118.99L124.284 131.715L125.61 141.975L119.183 141.737L113.267 125.034L102.862 143.009L95.7214 141.577L105.514 123.762L106.738 116.286C106.738 116.286 105.922 112.309 109.799 109.605L109.187 108.173V106.409L107.146 97.993L109.085 94.414Z" fill="#2F2E41"/>
<path opacity="0.2" d="M108.894 112.602L108.663 112.653L113.151 125.06L113.382 125.009L108.894 112.602Z" fill="black"/>
<path d="M109.289 110.162H119.285V109.366H109.289V110.162Z" fill="#3F3D56"/>
<path d="M119.285 110.639C119.511 110.639 119.693 110.283 119.693 109.844C119.693 109.404 119.511 109.048 119.285 109.048C119.06 109.048 118.877 109.404 118.877 109.844C118.877 110.283 119.06 110.639 119.285 110.639Z" fill="#3F3D56"/>
<path d="M119.549 90.6701C120.99 88.6153 120.021 86.0391 117.386 84.9159C114.75 83.7927 111.446 84.5478 110.005 86.6025C108.565 88.6573 109.533 91.2335 112.169 92.3567C114.804 93.48 118.108 92.7248 119.549 90.6701Z" fill="#FFB7B7"/>
<path d="M106.456 87.1227C109.113 87.1227 111.267 85.4433 111.267 83.3717C111.267 81.3001 109.113 79.6207 106.456 79.6207C103.798 79.6207 101.645 81.3001 101.645 83.3717C101.645 85.4433 103.798 87.1227 106.456 87.1227Z" fill="#2F2E41"/>
<path d="M100.35 82.9699C100.161 83.4669 100.105 83.9892 100.187 84.5038C100.269 85.0183 100.487 85.514 100.828 85.9596C101.168 86.4051 101.623 86.7908 102.164 87.0923C102.705 87.3937 103.321 87.6045 103.972 87.7111C104.623 87.8178 105.295 87.8181 105.946 87.7121C106.597 87.606 107.213 87.3958 107.754 87.0948C108.296 86.7939 108.751 86.4086 109.092 85.9634C109.433 85.5182 109.652 85.0227 109.735 84.5082C109.391 85.4105 108.623 86.1789 107.586 86.6606C106.548 87.1423 105.316 87.3022 104.134 87.1085C102.952 86.9147 101.907 86.3816 101.206 85.615C100.505 84.8483 100.2 83.9041 100.35 82.9699V82.9699Z" fill="#2F2E41"/>
<path d="M119.357 87.4592C119.498 88.4287 119.225 89.4076 118.58 90.244C117.935 91.0803 116.955 91.7276 115.79 92.0854C114.626 92.4432 113.343 92.4916 112.14 92.2232C110.936 91.9547 109.88 91.3842 109.135 90.6003C108.39 89.8164 107.997 88.8626 108.017 87.887C108.038 86.9113 108.47 85.9681 109.248 85.2036C110.026 84.439 111.105 83.8958 112.319 83.6581C113.533 83.4204 114.813 83.5015 115.962 83.8888C116.912 83.2914 118.09 83.4765 119.048 84.107C120.131 84.8199 120.452 85.3096 121.292 86.4819C120.466 86.5724 120.182 87.3687 119.357 87.4592Z" fill="#2F2E41"/>
<path d="M99.3667 100.21C99.4276 101.467 99.5482 103.94 99.5482 104.066C99.5482 104.199 101.953 108.082 102.992 109.753V109.754C103.066 109.871 103.132 109.978 103.191 110.072C103.271 110.202 103.398 110.311 103.555 110.386C103.712 110.462 103.894 110.5 104.079 110.497L108.619 110.434C108.869 110.431 109.107 110.352 109.284 110.215C109.462 110.078 109.564 109.893 109.57 109.698L110.077 94.1239C110.078 94.0726 110.067 94.0215 110.043 93.9737C110.019 93.9258 109.983 93.8822 109.937 93.8455C109.891 93.8087 109.836 93.7794 109.775 93.7594C109.714 93.7394 109.649 93.7291 109.583 93.7291H103.728C103.48 93.7292 103.238 93.7836 103.029 93.8861C102.819 93.9886 102.651 94.1351 102.543 94.3087L99.7329 98.8418C99.4694 99.2678 99.3437 99.7376 99.3667 100.21V100.21Z" fill="#CED669"/>
<path d="M109.649 108.63C110.814 108.079 111.861 107.389 112.752 106.585C114.82 104.771 116.079 102.483 116.337 100.064C116.568 97.9938 116.041 96.4552 114.772 95.4907C113.158 94.2646 110.961 94.4427 110.868 94.4509L110.77 94.4596L109.281 95.4415L109.703 95.8296L111.034 94.951C111.442 94.9351 113.106 94.9317 114.322 95.8588C115.441 96.7122 115.9 98.1121 115.688 100.02C115.442 102.323 114.247 104.502 112.281 106.233C111.433 106.997 110.439 107.656 109.335 108.184L109.649 108.63Z" fill="#CED669"/>
<path d="M101.2 102.713L101.156 102.879L109.09 104.149L109.134 103.983L101.2 102.713Z" fill="#3F3D56"/>
<path d="M106.429 93.7257L105.914 103.568L106.131 103.575L106.646 93.7326L106.429 93.7257Z" fill="#3F3D56"/>
<path d="M99.3667 100.21C99.4276 101.467 99.5482 103.94 99.5482 104.066C99.5482 104.199 101.953 108.082 102.992 109.753L101.056 100.986C100.981 100.648 100.792 100.332 100.509 100.071C100.227 99.8087 99.8596 99.6101 99.446 99.4951C99.381 99.7299 99.3543 99.9702 99.3667 100.21V100.21Z" fill="#3F3D56"/>
<path d="M111.265 118.584C111.094 118.412 110.973 118.212 110.911 117.999C110.849 117.787 110.848 117.566 110.907 117.353C110.966 117.14 111.085 116.94 111.254 116.766C111.423 116.592 111.64 116.45 111.887 116.349L111.494 112.954L114.081 112.264L114.551 117.064C114.741 117.4 114.768 117.779 114.624 118.128C114.481 118.478 114.178 118.775 113.773 118.962C113.368 119.149 112.889 119.214 112.427 119.144C111.965 119.075 111.551 118.875 111.265 118.584V118.584Z" fill="#FFB7B7"/>
<path d="M109.572 98.0957C109.521 97.5802 109.692 97.0662 110.058 96.6349C110.423 96.2036 110.963 95.8795 111.591 95.7137C112.144 95.5711 112.743 95.5715 113.296 95.7149C113.888 95.8722 114.402 96.1707 114.765 96.5682C115.128 96.9656 115.321 97.4419 115.318 97.9298L115.512 115.169L110.927 115.299L109.572 98.0957Z" fill="#CBCBCB"/>
</g>
</g>
<defs>
<clipPath id="clip0_3_171">
<rect width="200" height="150" fill="white"/>
</clipPath>
<clipPath id="clip1_3_171">
<rect width="195" height="148" fill="white" transform="translate(2 4)"/>
</clipPath>
</defs>
</svg>
